<svg xmlns="http://www.w3.org/2000/svg" xmlns:xlink="http://www.w3.org/1999/xlink" viewBox="0 0 375 666.667"><defs><style>.a{fill:none;}.b{clip-path:url(#a);}.c{fill:#ffcf04;}.d{fill:#1d2538;}.e{fill:#e8487a;}.f{fill:#29b3ae;}.g{fill:#e7477a;}.h{fill:#ffd100;}</style><clipPath id="a"><rect class="a" width="375" height="666.667"/></clipPath></defs><g transform="translate(22.71 563.15)"><g transform="translate(-22.71 -563.15)"><g class="b" transform="translate(0 0)"><path class="c" d="M30.645,10.365,26.17,1.5,29.147,0l3.37,6.676,8.59-1.413,3.922,7.769,8.59-1.413,3.925,7.769,7.379-1.214.543,3.291-9.8,1.612-3.925-7.769-8.587,1.413L39.232,8.952Z" transform="translate(-11.412 170.033)"/><path class="c" d="M17.558,36.125,13.08,27.264l2.98-1.5,3.37,6.676,8.59-1.413,3.922,7.769,8.59-1.413,3.922,7.769,7.382-1.214.543,3.291-9.8,1.612-3.925-7.772-8.59,1.416-3.922-7.769Z" transform="translate(-2.274 152.051)"/><path class="c" d="M4.475,61.885,0,53.021l2.977-1.5L6.35,58.2l8.587-1.416,3.925,7.772,8.587-1.416,3.925,7.772,7.382-1.217.54,3.294L29.5,74.6l-3.922-7.772-8.59,1.413-3.922-7.769Z" transform="translate(6.857 134.069)"/><path class="d" d="M110.173,1146.585l-7.443-7.443,7.443-7.443,7.434,7.452Zm-2.871-7.443,2.871,2.874,2.874-2.874-2.874-2.871Z" transform="translate(-71.712 -790.003)"/><path class="e" d="M1098.173,1721.585l-7.443-7.443,7.443-7.443,7.443,7.443Zm-2.871-7.443,2.871,2.874,2.875-2.874-2.875-2.871Z" transform="translate(-761.403 -1191.392)"/><path class="f" d="M1136.642,717.2h0a2.548,2.548,0,0,1,0-3.623h0a2.554,2.554,0,0,1,3.623,0h0a2.548,2.548,0,0,1,0,3.623h0a2.548,2.548,0,0,1-3.623,0Z" transform="translate(-792.925 -497.6)"/><path class="f" d="M1214.927,717.269h-42.5a2.554,2.554,0,0,1-2.554-2.554h0a2.554,2.554,0,0,1,2.554-2.554h42.5a2.554,2.554,0,0,1,2.554,2.554h0A2.554,2.554,0,0,1,1214.927,717.269Z" transform="translate(-816.648 -497.136)"/><path class="g" d="M1223.078,748.151h0a2.554,2.554,0,0,1,0-3.623h0a2.554,2.554,0,0,1,3.623,0h0a2.554,2.554,0,0,1,0,3.623h0a2.554,2.554,0,0,1-3.623,0Z" transform="translate(-853.265 -519.205)"/><path class="g" d="M1301.36,748.189h-42.5a2.557,2.557,0,0,1-2.557-2.554h0a2.557,2.557,0,0,1,2.557-2.554h42.5a2.554,2.554,0,0,1,2.554,2.554h0A2.554,2.554,0,0,1,1301.36,748.189Z" transform="translate(-876.982 -518.72)"/><path class="h" d="M1057.738,687.7h0a2.554,2.554,0,0,1,0-3.623h0a2.554,2.554,0,0,1,3.623,0h0a2.555,2.555,0,0,1,0,3.623h0a2.554,2.554,0,0,1-3.623,0Z" transform="translate(-737.846 -477.006)"/><path class="h" d="M1155.888,687.762h-61.247c-2.032,0-3.681-1.144-3.681-2.554h0c0-1.413,1.649-2.557,3.681-2.557h61.247c2.035,0,3.681,1.144,3.681,2.557h0C1159.562,686.617,1157.917,687.762,1155.888,687.762Z" transform="translate(-761.564 -476.536)"/><rect class="d" width="12.415" height="12.415" transform="translate(28.385 349.038) rotate(-45)"/></g></g></g></svg>