<svg xmlns="http://www.w3.org/2000/svg" viewBox="0 0 260.607 56"><defs><style>.a{fill:#ffd200;}.b{fill:#2bb5af;}.c{fill:#e8487a;}.d{fill:#13110c;}.e{fill:#ea5380;}</style></defs><g transform="translate(0 0)"><g transform="translate(1.072 4.217)"><path class="a" d="M39.984,13.2a3.264,3.264,0,0,1,1.037,2.454v32.77a3.335,3.335,0,0,1-.968,2.454,3.436,3.436,0,0,1-2.558,1,3.548,3.548,0,0,1-2.593-.968,3.387,3.387,0,0,1-1-2.489V25.612L24.567,39.889A4.976,4.976,0,0,1,23.253,41a2.7,2.7,0,0,1-1.521.38A2.458,2.458,0,0,1,20.246,41a4.976,4.976,0,0,1-1.314-1.106L9.6,25.094V48.427a3.545,3.545,0,0,1-.9,2.489,3.028,3.028,0,0,1-2.385.968,3.007,3.007,0,0,1-2.316-1,3.578,3.578,0,0,1-.9-2.454V15.657a3.243,3.243,0,0,1,1.037-2.42,3.387,3.387,0,0,1,2.523-1,3.821,3.821,0,0,1,1.694.415,3.463,3.463,0,0,1,1.314,1.106L22.078,32.7,34.764,13.721a3.4,3.4,0,0,1,1.21-1.106A3.28,3.28,0,0,1,37.53,12.2,3.48,3.48,0,0,1,39.984,13.2Z" transform="translate(-3.1 -12.2)"/></g><g transform="translate(45.215 13.101)"><path class="a" d="M158.627,55.08a3.743,3.743,0,0,1-2.385.864h-18.7a8.655,8.655,0,0,0,8.607,7.156,12.434,12.434,0,0,0,3.63-.415,10,10,0,0,0,2.074-.9c.519-.311.864-.553,1.037-.657a4.281,4.281,0,0,1,1.936-.519,2.693,2.693,0,0,1,2.04.864,2.726,2.726,0,0,1,.864,1.97,3.507,3.507,0,0,1-1.59,2.765,14.359,14.359,0,0,1-4.252,2.212,16.967,16.967,0,0,1-5.393.9,16.735,16.735,0,0,1-8.3-1.97,13.835,13.835,0,0,1-5.462-5.462,16,16,0,0,1-1.936-7.847,17.426,17.426,0,0,1,2.04-8.538,14.364,14.364,0,0,1,5.393-5.635,13.742,13.742,0,0,1,7.121-1.97,13.349,13.349,0,0,1,7.052,2.04A15.267,15.267,0,0,1,159.664,52.9,2.749,2.749,0,0,1,158.627,55.08Zm-21.017-4.84h14.83v-.38a5.862,5.862,0,0,0-2.316-4.079,7.265,7.265,0,0,0-4.77-1.694C141,44.088,138.4,46.127,137.61,50.241Z" transform="translate(-130.8 -37.9)"/></g><g transform="translate(79.852 13.032)"><path class="b" d="M255.128,41.157c1.486,2.281,2.212,5.462,2.212,9.472V65.112a3.335,3.335,0,0,1-.968,2.454,3.286,3.286,0,0,1-2.42,1,3.231,3.231,0,0,1-2.42-1,3.335,3.335,0,0,1-.968-2.454V50.628a8.269,8.269,0,0,0-1.314-4.909c-.864-1.175-2.351-1.8-4.459-1.8a6.862,6.862,0,0,0-5.151,1.9,6.571,6.571,0,0,0-1.867,4.77V65.112a3.335,3.335,0,0,1-.968,2.454,3.286,3.286,0,0,1-2.42,1,3.231,3.231,0,0,1-2.42-1A3.335,3.335,0,0,1,231,65.112V41.744a3.335,3.335,0,0,1,.968-2.454,3.286,3.286,0,0,1,2.42-1,3.231,3.231,0,0,1,2.42,1,3.335,3.335,0,0,1,.968,2.454v.968a14.127,14.127,0,0,1,3.975-3.526,10.55,10.55,0,0,1,5.393-1.486C250.98,37.735,253.642,38.875,255.128,41.157Z" transform="translate(-231 -37.7)"/></g><g transform="translate(110.721 7.121)"><path class="b" d="M339.174,51.746a2.922,2.922,0,0,1,.657,2,3.1,3.1,0,0,1-1.659,2.593A7.017,7.017,0,0,1,334.4,57.38a10.876,10.876,0,0,1-5.911-1.486c-1.59-1-2.42-3.111-2.42-6.36V33.909H323.48a3.214,3.214,0,0,1-2.281-.9,3.1,3.1,0,0,1-.9-2.281,2.973,2.973,0,0,1,.9-2.178,3.075,3.075,0,0,1,2.281-.864h2.593v-3.63A3.423,3.423,0,0,1,329.53,20.6a3.265,3.265,0,0,1,2.385,1,3.335,3.335,0,0,1,.968,2.454v3.6h4.01a3.214,3.214,0,0,1,2.281.9,3.1,3.1,0,0,1,.9,2.281,2.973,2.973,0,0,1-.9,2.178,3.075,3.075,0,0,1-2.281.864h-4.01V49.222a2.15,2.15,0,0,0,.622,1.728,2.554,2.554,0,0,0,1.694.553,4.063,4.063,0,0,0,1.244-.242,3.732,3.732,0,0,1,1.314-.277A2.015,2.015,0,0,1,339.174,51.746Z" transform="translate(-320.3 -20.6)"/></g><g transform="translate(134.711 13.101)"><path class="b" d="M417.527,55.08a3.743,3.743,0,0,1-2.385.864h-18.7a8.655,8.655,0,0,0,8.607,7.156,12.434,12.434,0,0,0,3.63-.415,10,10,0,0,0,2.074-.9c.518-.311.864-.553,1.037-.657a4.281,4.281,0,0,1,1.936-.519,2.693,2.693,0,0,1,2.039.864,2.726,2.726,0,0,1,.864,1.97,3.507,3.507,0,0,1-1.59,2.765,14.359,14.359,0,0,1-4.252,2.212,16.967,16.967,0,0,1-5.393.9,16.735,16.735,0,0,1-8.3-1.97,13.835,13.835,0,0,1-5.462-5.462,16,16,0,0,1-1.936-7.847,17.426,17.426,0,0,1,2.04-8.538,14.364,14.364,0,0,1,5.393-5.635,13.742,13.742,0,0,1,7.121-1.97,13.349,13.349,0,0,1,7.052,2.04A15.267,15.267,0,0,1,418.564,52.9,2.858,2.858,0,0,1,417.527,55.08Zm-21.017-4.84h14.83v-.38a5.862,5.862,0,0,0-2.316-4.079,7.265,7.265,0,0,0-4.77-1.694C399.9,44.088,397.3,46.127,396.51,50.241Z" transform="translate(-389.7 -37.9)"/></g><g transform="translate(167.585 12.998)"><path class="c" d="M507.442,39.156c1.97,1,2.938,2.316,2.938,3.975a3.445,3.445,0,0,1-.726,2.178,2.344,2.344,0,0,1-1.936.933A3.717,3.717,0,0,1,506.232,46a4.207,4.207,0,0,1-1.106-.691,6.01,6.01,0,0,0-1.037-.691,9.593,9.593,0,0,0-1.659-.519,10.369,10.369,0,0,0-1.8-.242A8.471,8.471,0,0,0,494,46.484a9.878,9.878,0,0,0-2.42,6.879A9.692,9.692,0,0,0,494,60.138a8.014,8.014,0,0,0,6.222,2.7,9.88,9.88,0,0,0,4.148-.691,5.489,5.489,0,0,0,.933-.588,7.709,7.709,0,0,1,1.106-.657,3.321,3.321,0,0,1,1.244-.242,2.966,2.966,0,0,1,2.247.9,3.148,3.148,0,0,1-.76,4.874,12.709,12.709,0,0,1-4.183,1.9,20.637,20.637,0,0,1-5.565.691,14.461,14.461,0,0,1-7.674-2.04,13.683,13.683,0,0,1-5.116-5.635,17.533,17.533,0,0,1-1.8-8.02,17.016,17.016,0,0,1,1.9-8.158A13.915,13.915,0,0,1,491.99,39.6a14.824,14.824,0,0,1,7.709-2A18.085,18.085,0,0,1,507.442,39.156Z" transform="translate(-484.8 -37.6)"/></g><g transform="translate(198.454 2.005)"><path class="c" d="M597.745,20.284c1.417,2.281,2.143,5.462,2.143,9.472V44.24a3.335,3.335,0,0,1-.968,2.454,3.286,3.286,0,0,1-2.42,1,3.231,3.231,0,0,1-2.42-1,3.335,3.335,0,0,1-.968-2.454V29.756a8.811,8.811,0,0,0-1.21-4.909c-.8-1.175-2.247-1.8-4.286-1.8a6.383,6.383,0,0,0-4.943,1.9,6.81,6.81,0,0,0-1.8,4.77V44.24a3.335,3.335,0,0,1-.968,2.454,3.286,3.286,0,0,1-2.42,1,3.232,3.232,0,0,1-2.42-1,3.335,3.335,0,0,1-.968-2.454V9.257a3.335,3.335,0,0,1,.968-2.454,3.286,3.286,0,0,1,2.42-1,3.232,3.232,0,0,1,2.42,1,3.335,3.335,0,0,1,.968,2.454V21.77a13.994,13.994,0,0,1,3.872-3.491A9.769,9.769,0,0,1,590,16.827C593.735,16.862,596.293,18,597.745,20.284Z" transform="translate(-574.1 -5.8)"/></g><g transform="translate(0 2.212)"><path class="d" d="M35.5,48.365a4.561,4.561,0,0,1-3.353-1.279A4.4,4.4,0,0,1,30.8,43.768V24.756l-7.328,11.2a5.9,5.9,0,0,1-1.59,1.348,3.827,3.827,0,0,1-2.109.519,3.671,3.671,0,0,1-2.04-.519,5.417,5.417,0,0,1-1.59-1.348l-.1-.1L8.78,24.375V43.8a4.694,4.694,0,0,1-1.21,3.284A4.271,4.271,0,0,1,4.356,48.4,4.2,4.2,0,0,1,1.21,47.052,4.643,4.643,0,0,1,0,43.837V11A4.5,4.5,0,0,1,1.383,7.748,4.566,4.566,0,0,1,4.7,6.4a4.764,4.764,0,0,1,2.212.553A4.554,4.554,0,0,1,8.642,8.44L20.049,25.965,31.8,8.44a4.407,4.407,0,0,1,1.625-1.452,4.275,4.275,0,0,1,2.109-.553,4.633,4.633,0,0,1,3.249,1.314A4.314,4.314,0,0,1,40.2,11.032v8.953a1.141,1.141,0,0,1-2.281,0V11a2.025,2.025,0,0,0-.691-1.625,2.408,2.408,0,0,0-1.694-.691,2.192,2.192,0,0,0-1,.277,2.854,2.854,0,0,0-.83.726l-13.654,20.4L6.775,9.684a2.3,2.3,0,0,0-.864-.726,2.6,2.6,0,0,0-1.175-.311,2.293,2.293,0,0,0-1.728.691,2.122,2.122,0,0,0-.691,1.625v32.8a2.382,2.382,0,0,0,.622,1.694,1.906,1.906,0,0,0,1.486.622,2.006,2.006,0,0,0,1.556-.622,2.337,2.337,0,0,0,.588-1.728v-27.2l11.407,18.01a3.61,3.61,0,0,0,.968.8,1.247,1.247,0,0,0,.83.207h.138a1.294,1.294,0,0,0,.864-.207,4.24,4.24,0,0,0,.968-.8L33.116,17.151V43.768a2.214,2.214,0,0,0,.657,1.694,2.4,2.4,0,0,0,1.8.657A2.251,2.251,0,0,0,37.956,43.8v-12a1.141,1.141,0,1,1,2.281,0v11.96a4.43,4.43,0,0,1-1.279,3.249A4.829,4.829,0,0,1,35.5,48.365Z" transform="translate(0 -6.4)"/></g><g transform="translate(44.109 11.062)"><path class="d" d="M144.435,65.669a17.84,17.84,0,0,1-8.849-2.143,15.184,15.184,0,0,1-5.911-5.911,17,17,0,0,1-2.074-8.4,19.525,19.525,0,0,1,1.314-7.259,1.139,1.139,0,1,1,2.109.864,17.13,17.13,0,0,0-1.141,6.4,14.628,14.628,0,0,0,1.8,7.294,12.936,12.936,0,0,0,5.012,5.012,15.736,15.736,0,0,0,7.743,1.832,1.151,1.151,0,0,1,1.141,1.141A1.181,1.181,0,0,1,144.435,65.669Zm9.61-3.111a1.1,1.1,0,0,1-.9-.449,1.117,1.117,0,0,1,.207-1.59,2.485,2.485,0,0,0,1.141-1.9,1.6,1.6,0,0,0-.519-1.175,1.7,1.7,0,0,0-1.244-.519,3.345,3.345,0,0,0-1.383.38c-.207.1-.519.311-1,.622a11.407,11.407,0,0,1-2.316,1.037,13.5,13.5,0,0,1-3.975.484,9.9,9.9,0,0,1-6.188-2.143,9.724,9.724,0,0,1-3.526-5.911l-.277-1.348h20.084a2.629,2.629,0,0,0,1.659-.588,1.813,1.813,0,0,0,.657-1.348,13.663,13.663,0,0,0-1.832-6.879,13.854,13.854,0,0,0-4.909-5.081,12.1,12.1,0,0,0-6.464-1.867,13.035,13.035,0,0,0-6.568,1.8,1.138,1.138,0,1,1-1.141-1.97A15.208,15.208,0,0,1,143.259,32a14.207,14.207,0,0,1,7.64,2.212,16.22,16.22,0,0,1,5.669,5.877,15.961,15.961,0,0,1,2.143,8.054v.035a3.991,3.991,0,0,1-1.486,3.042,4.825,4.825,0,0,1-3.111,1.106H136.9a7.03,7.03,0,0,0,2.316,3.215,7.583,7.583,0,0,0,4.8,1.659,11.362,11.362,0,0,0,3.284-.38,7.444,7.444,0,0,0,1.8-.8c.519-.311.864-.553,1.072-.657l.069-.035a5.47,5.47,0,0,1,2.42-.622,4.013,4.013,0,0,1,4.01,3.975,4.645,4.645,0,0,1-2,3.664A.9.9,0,0,1,154.044,62.558Zm-2.558-15.9H134.133l.277-1.348c.9-4.632,3.975-7.086,8.884-7.086a8.49,8.49,0,0,1,3.941.933,13.105,13.105,0,0,1,1.556,1,1.131,1.131,0,0,1-1.417,1.763,7.27,7.27,0,0,0-1.141-.76,6.311,6.311,0,0,0-2.9-.691c-3.319,0-5.358,1.244-6.291,3.906h12.479a1.124,1.124,0,0,1,.864-.38,1.151,1.151,0,0,1,1.141,1.141v1.521Z" transform="translate(-127.6 -32)"/></g><g transform="translate(109.546 5.116)"><path class="d" d="M332.179,53.862a12.232,12.232,0,0,1-6.533-1.659c-1.936-1.21-2.938-3.7-2.938-7.328a1.141,1.141,0,1,1,2.281,0c0,2.8.622,4.632,1.867,5.393a9.811,9.811,0,0,0,5.323,1.314,5.941,5.941,0,0,0,3.18-.864c1.037-.657,1.141-1.244,1.141-1.625a2.013,2.013,0,0,0-.38-1.279c-.311-.38-.518-.38-.588-.38a2.1,2.1,0,0,0-.864.207l-.138.035a6.164,6.164,0,0,1-1.556.277,3.577,3.577,0,0,1-2.454-.83,3.307,3.307,0,0,1-1-2.593V28.074h5.151a2.035,2.035,0,0,0,1.486-.553,2.046,2.046,0,0,0-.035-2.835,1.98,1.98,0,0,0-1.452-.588h-4.01a1.141,1.141,0,1,1,0-2.281h4.01a4.251,4.251,0,0,1,4.321,4.321,4.1,4.1,0,0,1-1.244,3.007,4.227,4.227,0,0,1-3.042,1.21h-2.9V44.563a1.27,1.27,0,0,0,.242.864,1.469,1.469,0,0,0,.968.277,2.685,2.685,0,0,0,.864-.173,4.2,4.2,0,0,1,1.659-.346,3.028,3.028,0,0,1,2.316,1.175,4.11,4.11,0,0,1-1.279,6.257A8.108,8.108,0,0,1,332.179,53.862Zm-8.331-16.7a1.151,1.151,0,0,1-1.141-1.141V30.356h-1.486a4.251,4.251,0,0,1-4.321-4.321,4.1,4.1,0,0,1,1.244-3.007,4.227,4.227,0,0,1,3.042-1.21h1.486V19.363a4.487,4.487,0,0,1,4.563-4.563,4.258,4.258,0,0,1,3.18,1.348,1.125,1.125,0,0,1-1.625,1.556,2.014,2.014,0,0,0-1.556-.657,2.246,2.246,0,0,0-2.316,2.316v4.77h-3.733a2.035,2.035,0,0,0-1.486.553,2.046,2.046,0,0,0,.035,2.835,1.98,1.98,0,0,0,1.452.588h3.733v7.916A1.072,1.072,0,0,1,323.848,37.165Z" transform="translate(-316.9 -14.8)"/></g><g transform="translate(133.57 11.027)"><path class="d" d="M403.235,65.6a17.84,17.84,0,0,1-8.849-2.143,15.184,15.184,0,0,1-5.911-5.911,17,17,0,0,1-2.074-8.4,18.425,18.425,0,0,1,2.178-9.091A15.384,15.384,0,0,1,402.094,31.9a1.141,1.141,0,1,1,0,2.281,13.035,13.035,0,0,0-6.568,1.8,13.435,13.435,0,0,0-4.978,5.22,16.525,16.525,0,0,0-1.9,7.985,14.628,14.628,0,0,0,1.8,7.294,12.936,12.936,0,0,0,5.012,5.012,16.571,16.571,0,0,0,12.756,1,13.264,13.264,0,0,0,3.906-2,2.492,2.492,0,0,0,1.175-1.9,1.6,1.6,0,0,0-.519-1.175,1.7,1.7,0,0,0-1.244-.519,3.345,3.345,0,0,0-1.383.38c-.207.1-.518.311-1,.622a11.407,11.407,0,0,1-2.316,1.037,13.5,13.5,0,0,1-3.975.484,9.9,9.9,0,0,1-6.188-2.143,1.134,1.134,0,1,1,1.383-1.8,7.583,7.583,0,0,0,4.8,1.659,11.362,11.362,0,0,0,3.284-.38,7.444,7.444,0,0,0,1.8-.8c.519-.311.864-.553,1.072-.657l.069-.035a5.47,5.47,0,0,1,2.42-.622,4.013,4.013,0,0,1,4.01,3.975,4.645,4.645,0,0,1-2,3.664,14.31,14.31,0,0,1-4.6,2.385A17.409,17.409,0,0,1,403.235,65.6Zm9.748-13.343h-18.7a1.141,1.141,0,1,1,0-2.281h18.7a2.629,2.629,0,0,0,1.659-.588,1.814,1.814,0,0,0,.657-1.348,13.663,13.663,0,0,0-1.832-6.879,1.138,1.138,0,1,1,1.97-1.141,15.961,15.961,0,0,1,2.143,8.054v.035a3.991,3.991,0,0,1-1.486,3.042A4.825,4.825,0,0,1,412.983,52.26Zm3.457-4.217Zm-6.119-1.452H392.968l.242-1.348c.9-4.632,3.975-7.086,8.884-7.086a8.51,8.51,0,0,1,5.462,1.936,6.982,6.982,0,0,1,2.731,4.84v1.659ZM395.8,44.31h12.064a4.966,4.966,0,0,0-1.763-2.454,6.248,6.248,0,0,0-4.044-1.452C398.775,40.4,396.736,41.648,395.8,44.31Z" transform="translate(-386.4 -31.9)"/></g><g transform="translate(166.444 11.027)"><path class="d" d="M497.228,65.6a1.141,1.141,0,0,1,0-2.281,21.231,21.231,0,0,0,5.254-.657,11.124,11.124,0,0,0,3.8-1.694,2.052,2.052,0,0,0,.622-3.215,1.676,1.676,0,0,0-1.383-.519,1.822,1.822,0,0,0-.8.138,3.725,3.725,0,0,0-.9.553,10.318,10.318,0,0,1-1.072.691,10.329,10.329,0,0,1-4.632.8,9.066,9.066,0,0,1-7.052-3.077,10.913,10.913,0,0,1-2.731-7.536,10.915,10.915,0,0,1,2.7-7.64,9.689,9.689,0,0,1,7.5-3.007,9.995,9.995,0,0,1,2,.242,7.48,7.48,0,0,1,1.936.622l.035.035a10.315,10.315,0,0,1,1.21.8,6.033,6.033,0,0,0,.864.553,2.651,2.651,0,0,0,1,.138,1.141,1.141,0,0,1,0,2.281,4.619,4.619,0,0,1-1.936-.346,7.107,7.107,0,0,1-1.348-.83,5.482,5.482,0,0,0-.864-.588,6.9,6.9,0,0,0-1.383-.415,8.028,8.028,0,0,0-1.556-.207A7.286,7.286,0,0,0,492.7,42.72a8.665,8.665,0,0,0-2.109,6.119,8.5,8.5,0,0,0,2.143,6.015,6.912,6.912,0,0,0,5.393,2.316,8.7,8.7,0,0,0,3.63-.553c.1-.069.346-.207.8-.519a7.5,7.5,0,0,1,1.314-.76,4.353,4.353,0,0,1,1.694-.311,3.9,3.9,0,0,1,3.077,1.279,4.538,4.538,0,0,1,1.106,3.077,4.344,4.344,0,0,1-2.04,3.457,13.3,13.3,0,0,1-4.563,2.074A25.616,25.616,0,0,1,497.228,65.6Zm-12.79-7.674a1.114,1.114,0,0,1-1-.622,18.9,18.9,0,0,1-1.936-8.538,18.266,18.266,0,0,1,2.04-8.677,15.173,15.173,0,0,1,5.7-6.015A15.86,15.86,0,0,1,497.5,31.9a18.292,18.292,0,0,1,8.262,1.625c2.938,1.486,3.56,3.56,3.56,5.012a1.141,1.141,0,1,1-2.281,0c0-.449,0-1.8-2.316-2.973a16.342,16.342,0,0,0-7.259-1.383,13.6,13.6,0,0,0-7.121,1.867,12.741,12.741,0,0,0-4.874,5.151,16.071,16.071,0,0,0-1.763,7.64,16.187,16.187,0,0,0,1.694,7.5,1.119,1.119,0,0,1-.519,1.521A1.534,1.534,0,0,1,484.438,57.93Z" transform="translate(-481.5 -31.9)"/></g><g transform="translate(197.244)"><path class="d" d="M594.21,44.178a4.356,4.356,0,0,1-3.249-1.348,4.43,4.43,0,0,1-1.279-3.249V25.1a7.356,7.356,0,0,0-1.037-4.252c-.588-.864-1.694-1.279-3.353-1.279a5.317,5.317,0,0,0-4.114,1.556,5.592,5.592,0,0,0-1.486,4.01V39.615a4.43,4.43,0,0,1-1.279,3.249,4.59,4.59,0,0,1-6.5,0,4.43,4.43,0,0,1-1.279-3.249V15.348a1.141,1.141,0,0,1,2.281,0V39.58a2.188,2.188,0,0,0,.657,1.659,2.338,2.338,0,0,0,3.249,0,2.188,2.188,0,0,0,.657-1.659V25.1a7.876,7.876,0,0,1,2.074-5.565,7.627,7.627,0,0,1,5.773-2.247c2.42,0,4.183.76,5.22,2.281a9.786,9.786,0,0,1,1.417,5.531V39.58a2.188,2.188,0,0,0,.657,1.659,2.338,2.338,0,0,0,3.249,0,2.188,2.188,0,0,0,.657-1.659V25.1a1.141,1.141,0,0,1,2.281,0V39.58a4.43,4.43,0,0,1-1.279,3.249A4.622,4.622,0,0,1,594.21,44.178ZM577.444,20.5V4.6a2.188,2.188,0,0,0-.657-1.659,2.338,2.338,0,0,0-3.249,0,2.188,2.188,0,0,0-.657,1.659,1.141,1.141,0,0,1-2.281,0,4.43,4.43,0,0,1,1.279-3.249A4.3,4.3,0,0,1,575.128,0a4.356,4.356,0,0,1,3.249,1.348A4.43,4.43,0,0,1,579.657,4.6v9.644a16.39,16.39,0,0,1,2.143-1.59,10.93,10.93,0,0,1,5.842-1.625c4.148,0,7.052,1.348,8.711,3.941a1.127,1.127,0,1,1-1.9,1.21c-1.21-1.936-3.457-2.9-6.81-2.9a8.492,8.492,0,0,0-4.632,1.279,13.253,13.253,0,0,0-3.56,3.18Z" transform="translate(-570.6 0)"/></g><g transform="translate(78.642 11.027)"><path class="d" d="M251.628,65.051a4.356,4.356,0,0,1-3.249-1.348,4.43,4.43,0,0,1-1.279-3.249V52.26a1.141,1.141,0,1,1,2.281,0v8.193a2.188,2.188,0,0,0,.657,1.659,2.338,2.338,0,0,0,3.249,0,2.188,2.188,0,0,0,.657-1.659V45.969c0-3.8-.691-6.775-2.04-8.884-1.244-1.97-3.56-2.9-7.017-2.9a1.141,1.141,0,1,1,0-2.281c4.252,0,7.259,1.314,8.953,3.941,1.59,2.454,2.385,5.842,2.385,10.094V60.419a4.544,4.544,0,0,1-4.6,4.632Zm-19.6,0a4.356,4.356,0,0,1-3.249-1.348,4.43,4.43,0,0,1-1.279-3.249V37.085a4.43,4.43,0,0,1,1.279-3.249,4.3,4.3,0,0,1,3.249-1.348,4.356,4.356,0,0,1,3.249,1.348,4.43,4.43,0,0,1,1.279,3.249v.968a1.141,1.141,0,1,1-2.281,0v-.968a2.188,2.188,0,0,0-.657-1.659,2.338,2.338,0,0,0-3.249,0,2.188,2.188,0,0,0-.657,1.659v23.4a2.188,2.188,0,0,0,.657,1.659,2.338,2.338,0,0,0,3.249,0,2.188,2.188,0,0,0,.657-1.659V45.969a7.61,7.61,0,0,1,2.178-5.565,7.974,7.974,0,0,1,5.946-2.247c2.489,0,4.286.76,5.393,2.247a9.315,9.315,0,0,1,1.521,5.565,1.141,1.141,0,1,1-2.281,0,7.224,7.224,0,0,0-1.072-4.217c-.657-.9-1.8-1.314-3.56-1.314a5.835,5.835,0,0,0-4.356,1.556,5.42,5.42,0,0,0-1.556,3.975V60.453a4.43,4.43,0,0,1-1.279,3.249A4,4,0,0,1,232.028,65.051Z" transform="translate(-227.5 -31.9)"/></g></g><path class="b" d="M231.7,157.533h0a.929.929,0,0,1,.933-.933h35.19a.929.929,0,0,1,.933.933h0a.929.929,0,0,1-.933.933h-35.19A.929.929,0,0,1,231.7,157.533Z" transform="translate(-151.606 -102.467)"/><path class="b" d="M373.7,157.533h0a.929.929,0,0,1,.933-.933h0a.929.929,0,0,1,.933.933h0a.929.929,0,0,1-.933.933h0A.929.929,0,0,1,373.7,157.533Z" transform="translate(-244.52 -102.467)"/><path class="a" d="M84.6,157.533h0a.929.929,0,0,1,.933-.933h0a.929.929,0,0,1,.933.933h0a.929.929,0,0,1-.933.933h0A.929.929,0,0,1,84.6,157.533Z" transform="translate(-55.356 -102.467)"/><path class="b" d="M341.6,157.533h0a.929.929,0,0,1,.933-.933h7.916a.929.929,0,0,1,.933.933h0a.929.929,0,0,1-.933.933h-7.916A.929.929,0,0,1,341.6,157.533Z" transform="translate(-223.516 -102.467)"/><path class="a" d="M92.6,157.533h0a.929.929,0,0,1,.933-.933h44.385a.929.929,0,0,1,.933.933h0a.929.929,0,0,1-.933.933H93.533A.929.929,0,0,1,92.6,157.533Z" transform="translate(-60.59 -102.467)"/><path class="a" d="M2.2,157.533h0a.929.929,0,0,1,.933-.933H28.852a.929.929,0,0,1,.933.933h0a.929.929,0,0,1-.933.933H3.133A.929.929,0,0,1,2.2,157.533Z" transform="translate(-1.44 -102.467)"/><path class="b" d="M466.9,157.533h0a.929.929,0,0,1,.933-.933h0a.929.929,0,0,1,.933.933h0a.929.929,0,0,1-.933.933h0A.929.929,0,0,1,466.9,157.533Z" transform="translate(-305.503 -102.467)"/><path class="b" d="M384.5,157.533h0a.929.929,0,0,1,.933-.933h25.719a.929.929,0,0,1,.933.933h0a.929.929,0,0,1-.933.933H385.433A.929.929,0,0,1,384.5,157.533Z" transform="translate(-251.586 -102.467)"/><path class="e" d="M544.557,157.533h0a.929.929,0,0,1-.933.933h-35.19a.929.929,0,0,1-.933-.933h0a.929.929,0,0,1,.933-.933h35.19A.929.929,0,0,1,544.557,157.533Z" transform="translate(-332.068 -102.467)"/><path class="e" d="M486.383,157.533h0a.929.929,0,0,1-.933.933h-7.916a.929.929,0,0,1-.933-.933h0a.929.929,0,0,1,.933-.933h7.916A.929.929,0,0,1,486.383,157.533Z" transform="translate(-311.849 -102.467)"/><path class="e" d="M666.352,157.533h0a.929.929,0,0,1-.933.933H621.033a.929.929,0,0,1-.933-.933h0a.929.929,0,0,1,.933-.933h44.385A.929.929,0,0,1,666.352,157.533Z" transform="translate(-405.744 -102.467)"/></svg>