<svg xmlns="http://www.w3.org/2000/svg" xmlns:xlink="http://www.w3.org/1999/xlink" version="1.1" id="Capa_1" x="0px" y="0px" viewBox="0 0 512 512" style="enable-background:new 0 0 512 512;" xml:space="preserve" width="512" height="512" class=""><g><g>
	<circle style="fill:#FF6D00" cx="256" cy="256" r="236.17" data-original="#1138F7" class="active-path" data-old_color="#FF7500"></circle>
	<path style="fill:#FF6D00" d="M256,512C114.853,512,0,397.167,0,256C0,114.853,114.853,0,256,0c141.167,0,256,114.853,256,256   C512,397.167,397.167,512,256,512z M256,39.659C136.705,39.659,39.659,136.705,39.659,256S136.705,472.341,256,472.341   S472.341,375.275,472.341,256C472.341,136.705,375.295,39.659,256,39.659z" data-original="#1138F7" class="active-path" data-old_color="#FF7500"></path>
</g><g>
	<circle style="fill:#FFFFFF;" cx="256" cy="256" r="39.659" data-original="#FFFFFF"></circle>
	<circle style="fill:#FFFFFF;" cx="374.978" cy="256" r="39.659" data-original="#FFFFFF"></circle>
	<circle style="fill:#FFFFFF;" cx="137.022" cy="256" r="39.659" data-original="#FFFFFF"></circle>
</g></g> </svg>